<svg width="96" height="104" viewBox="0 0 96 104" fill="none" xmlns="http://www.w3.org/2000/svg">
<path d="M9.77224 62.8862C4.93931 58.0199 2.60443 51.7335 1.41923 45.165C-0.042754 37.4538 -0.738293 29.5546 1.8165 21.6646C6.6351 6.35955 21.9144 -2.63595 37.0802 1.30833C43.5667 2.94432 49.5918 2.67605 56.0002 2.31372C71.975 1.21747 84.0608 7.53166 90.7106 23.25C92.861 28.7747 92.052 33.8152 92.5772 39.3353C93.3791 45.9979 93.7056 52.3737 94.8908 58.9423C95.8135 62.7508 95.1109 66.5548 93.4574 69.7851C90.5335 76.1516 88.1775 83.1859 82.8762 88.1184C75.5524 94.7579 68.1363 101.017 57.3421 100.034C51.1324 99.5409 46.0866 97.1478 42.4956 92.3802C39.7847 96.2735 36.4137 99.1183 31.9996 101.009C28.3518 102.711 24.6119 104.032 20.7015 102.975C17.6499 102.11 14.8893 100.77 13.6757 97.436C13.4912 96.6743 12.9234 96.0066 11.9725 95.4331C0.19176 87.0265 2.80328 72.6666 8.80708 63.9301C9.57353 63.742 9.8645 63.2671 9.77224 62.8862ZM50.2948 64.2386C50.2948 64.2386 50.2025 63.8578 49.8193 63.9519C49.9116 64.3327 49.9116 64.3327 50.2948 64.2386C49.9116 64.3327 50.2948 64.2386 50.2948 64.2386C52.0903 66.6225 56.5684 68.3479 60.4929 67.7882C63.9419 66.9417 67.7741 66.0011 71.2232 65.1546C73.5225 64.5903 74.9632 63.8332 74.9915 60.5983C73.7354 62.117 72.8909 60.3068 71.4502 61.0639C67.8025 62.7662 64.2612 63.2318 60.3367 63.7915C56.8877 64.638 53.4529 63.8671 50.2948 64.2386ZM49.0033 80.6955C48.2227 82.5011 47.3498 83.9258 46.0936 85.4446C44.8375 86.9634 44.8233 88.5809 46.0511 90.297C49.7344 95.4455 55.2698 96.5079 61.2027 95.8588C70.0027 95.313 75.8859 89.4306 81.7691 83.5482C85.431 80.2284 86.6232 75.0939 88.8587 70.9137C91.0941 66.7336 91.5199 61.7871 90.796 57.1228C89.8095 49.6985 88.6385 41.5125 88.7094 33.4251C88.7519 28.5727 87.3539 24.4773 85.0971 20.1893C79.1712 9.13524 69.6473 5.01675 57.2138 5.64735C50.4222 6.10374 43.6305 6.56012 36.7609 5.01818C22.837 1.17259 9.18286 10.1727 5.52812 23.5781C1.97981 35.7469 4.65537 46.7917 9.81478 58.0338C10.3825 58.7015 10.8438 60.6058 12.1922 59.4678C13.5406 58.3299 15.6554 57.0038 14.8109 55.1936C12.7386 51.6673 12.107 47.3838 11.5676 43.4812C10.503 34.0586 11.6314 25.3082 18.8629 18.2879C20.5023 16.675 21.9429 15.9179 24.2422 15.3536C27.7835 14.888 31.708 14.3283 35.2493 13.8626C42.4241 13.3122 49.7835 13.5234 56.639 16.6829C60.2583 18.2155 63.2035 20.3172 66.8229 21.8499C71.7764 23.8621 75.5661 27.7739 75.9068 32.5323C75.9707 36.1481 77.092 39.1009 78.3056 42.4345C80.2714 47.1975 80.6121 51.9558 78.5612 56.8977C77.4896 59.1782 76.9857 62.1263 77.6315 64.7923C78.0928 66.6966 77.9864 67.9332 77.0213 68.977C74.4168 71.6338 72.8555 75.2449 70.7265 78.1884C68.5975 81.132 66.3762 83.6946 62.6362 85.016C57.2711 86.3328 53.2827 83.2767 49.0033 80.6955ZM44.5464 65.6495C43.9929 63.3644 43.1483 61.5541 42.5948 59.269C41.658 57.078 41.1967 55.1737 40.2599 52.9826C38.2941 48.2196 35.1502 46.9737 30.445 49.339C26.1231 51.6103 21.418 53.9755 18.3238 57.9629C15.9038 61.3814 13.3916 64.4189 10.9716 67.8373C6.22394 75.055 7.10399 83.716 11.5395 90.2938C12.8595 92.3908 15.4357 92.9691 16.7557 95.0661C18.828 98.5925 21.5886 99.9324 25.8041 98.8978C34.235 96.8286 39.3518 91.1343 43.333 84.1047C46.8246 78.4058 45.7316 72.218 44.5464 65.6495ZM43.2476 50.2318C47.016 45.6755 51.2598 41.4059 54.6449 36.9436C57.4481 33.4312 61.2023 30.4923 63.53 26.693C64.2042 26.124 65.1694 25.0802 64.6016 24.4125C62.5152 22.5036 59.6622 20.7828 57.1784 20.5854C55.0777 20.294 54.7726 22.3864 54.2829 23.7171C50.8694 31.4143 46.5972 38.9188 42.7082 46.3292C41.9276 48.1348 41.8211 49.3714 43.2476 50.2318ZM38.9043 44.0349C41.9843 41.6649 42.7791 38.2419 42.2398 34.3393C41.5159 29.675 39.9332 24.818 39.5926 20.0596C39.5287 16.4438 37.5203 16.5332 35.1287 16.7167C34.7455 16.8108 33.979 16.9989 33.5958 17.0929C31.5874 17.1823 31.3887 18.0381 31.85 19.9424C32.6803 23.3701 33.5107 26.7978 33.9578 30.3195C34.3907 35.4587 34.3482 40.3111 38.9043 44.0349ZM50.4366 48.0639C58.3921 45.7079 64.4598 40.5872 71.2798 36.8959C71.9539 36.3269 72.6281 35.758 72.0604 35.0903C71.1236 32.8992 70.2791 31.089 68.9591 28.992C68.2991 27.9435 67.3481 27.3699 66.4752 28.7946C65.0204 31.1692 62.9978 32.8761 61.1598 35.3447C57.6824 39.4261 53.3463 43.3148 50.4366 48.0639ZM73.9056 42.7074C73.643 39.9474 72.4933 40.2295 71.5282 41.2734C65.5669 45.1575 59.8966 48.5666 53.3676 51.783C51.927 52.5401 50.5786 53.6781 49.2302 54.816C48.556 55.3849 47.4986 56.048 48.1586 57.0965C48.8186 58.145 49.9683 57.8628 50.6425 57.2938C58.1225 54.651 65.0347 51.3406 71.3792 47.3624C73.494 46.0364 74.2746 44.2308 73.9056 42.7074ZM17.1668 26.3706C15.6056 29.9817 15.2862 33.6916 14.9669 37.4015C14.8605 38.6381 15.045 39.3998 16.5637 40.641C18.5579 42.1691 21.134 42.7473 22.454 44.8443C24.725 47.5149 26.6412 47.0446 29.4302 45.1496C25.4701 38.8586 21.5101 32.5676 17.1668 26.3706ZM31.0056 39.921C31.2611 32.5954 30.1681 26.4076 28.3087 20.408C28.1242 19.6463 27.8474 18.5038 26.6977 18.7859C24.7816 19.2562 22.8655 19.7265 21.7016 21.6261C20.5378 23.5258 20.6159 25.5241 21.8436 27.2402C24.7746 30.9594 27.7978 35.0593 31.0056 39.921ZM72.976 50.602C66.5392 54.1993 59.627 57.5098 53.0057 60.3453C58.8322 60.9328 63.9986 60.4718 69.5625 58.2992C73.6857 56.8838 74.2676 55.934 72.976 50.602ZM42.9635 17.2148C43.0132 22.448 45.3623 27.117 45.8875 32.637C48.4139 27.982 50.0816 23.1342 52.4093 19.3349C49.5564 17.6141 46.3984 17.9857 42.9635 17.2148ZM71.3793 69.1513C63.8071 71.4132 56.2348 73.6752 48.4426 68.3247C49.3793 70.5158 48.691 72.7022 51.1748 72.8996C54.1342 73.3838 56.8026 74.3429 59.7619 74.827C66.7381 75.1323 69.7116 73.999 71.3793 69.1513ZM50.8555 76.6095C52.4523 79.849 55.5039 80.7141 58.1723 81.6731C61.2239 82.5382 63.5375 80.3564 65.3755 77.8878C60.5781 79.8722 56.2065 76.9101 50.8555 76.6095ZM15.4779 44.539C15.9392 46.4433 16.3083 47.9667 16.6773 49.4901C17.5999 53.2986 17.5077 52.9178 20.6799 50.9287C22.4115 49.6967 22.7025 49.2218 20.7083 47.6938C19.1895 46.4525 17.7631 45.5921 15.4779 44.539Z" fill="#0A0A0A"/>
</svg>
