<svg width="85" height="85" viewBox="0 0 85 85" fill="none" xmlns="http://www.w3.org/2000/svg">
<path d="M54.0588 17.3131C53.6908 15.0716 53.5091 13.0172 52.9531 11.3354C52.398 9.28019 53.5229 7.41578 53.7146 5.36237L54.089 4.98985C54.4624 4.99077 54.8349 5.36511 54.834 5.73854C55.3909 7.04693 55.7607 8.54156 56.3176 9.84995C57.4306 12.8401 58.9161 16.2047 57.6004 19.7491C61.9017 16.9589 67.1298 16.9717 71.6137 15.8624C72.1743 15.677 72.5468 16.0514 72.3596 16.2376C71.7963 17.5433 72.7285 18.1057 72.9129 19.0397C73.4662 21.8418 72.5303 22.7731 69.731 22.2061C67.305 21.64 64.502 22.5667 61.8853 23.6806L62.0715 23.8678C68.6061 24.0705 72.7047 27.8149 76.9886 32.1199C82.0176 37.1735 83.3095 43.3384 84.0408 49.6885C84.4042 53.7972 82.9013 57.5278 80.8388 61.0704C77.6495 67.2242 72.783 72.0669 66.9852 75.9738C65.1153 77.0895 63.4308 78.7658 61.5609 79.8815C57.4476 82.1121 53.3362 83.5957 48.8532 84.3316C44.5574 84.8812 40.6387 83.938 36.9098 81.6883C34.4857 80.3754 31.8735 79.6221 30.011 77.7504C27.775 75.8777 26.2876 73.26 24.6131 70.8286C23.3102 69.145 22.3808 67.4622 21.6394 65.2198C21.2687 64.0986 20.71 63.5371 19.2171 63.16C16.0453 62.2187 13.2496 60.1579 10.6401 58.2844C10.0813 57.7229 9.3354 57.3476 8.77663 56.7861C6.91222 55.6612 5.60932 53.9776 4.68078 51.9214C2.82277 48.1825 1.71163 44.4455 2.28138 40.5258C2.8493 37.353 2.2951 34.9243 1.18213 31.9342C-0.302447 28.1962 0.268222 23.9031 1.21141 19.9844C1.7775 17.5584 3.65014 15.3224 5.33561 13.2727C10.9535 6.56462 18.246 2.28801 27.2111 1.18967C32.8144 0.456533 37.8525 1.77589 42.7007 4.4018C46.2432 6.46437 49.2234 9.45913 51.0814 13.198C52.1989 14.3211 52.5687 15.8157 54.0588 17.3131ZM63.5286 38.8087C63.5277 39.1821 63.1534 39.5546 63.5268 39.5556C63.9003 39.5565 64.2746 39.184 64.0893 38.6234C66.5252 35.0817 63.7405 28.5398 59.4474 27.9691C59.074 27.9682 58.8878 27.781 58.5134 28.1536C58.3253 28.7132 58.6987 28.7142 59.2584 28.9023C61.3082 30.5877 63.1708 32.4595 63.3497 35.6341C63.1607 36.5672 63.158 37.6875 63.5286 38.8087ZM3.60714 32.8737C6.2422 24.2912 16.5331 15.5407 20.2664 15.9233C18.77 17.0399 17.4607 17.9703 16.3386 18.7144C10.9133 22.9956 7.16526 28.5879 5.4679 35.4923C4.90089 38.2916 4.33479 40.7176 4.7009 43.7059C5.42855 51.5498 10.6456 56.0438 16.237 60.1653C19.4052 62.6003 23.3249 63.1701 27.2473 62.6195C28.741 62.6232 30.4219 62.4406 31.7285 62.6305C32.1019 62.6314 32.4753 62.6324 32.4735 63.3792C32.4726 63.7526 32.2854 63.9389 31.912 63.938C30.6036 64.4949 29.4824 64.8656 27.9896 64.4885C26.683 64.2986 25.1893 64.2949 23.8827 64.105C24.2534 65.2262 24.8113 66.1612 25.3692 67.0961C26.1087 70.0854 27.9704 72.3306 30.3926 74.3904C33.9334 77.1998 37.6622 79.4496 41.9525 81.1405C45.6832 82.6434 49.79 83.0269 53.3408 81.7286C58.7606 79.688 63.4363 76.5252 66.9953 71.866C70.5543 67.2068 73.5537 62.3596 74.8758 56.2011C76.1969 50.4162 75.2766 44.9991 73.0489 39.7656C72.3057 38.27 71.189 36.7736 69.5109 35.8359C69.3209 37.1424 70.4394 37.892 69.6907 38.6371C69.1283 39.5693 69.1265 40.3161 69.1246 41.063C69.1237 41.4364 69.3091 41.997 68.7475 42.5558C68.5604 42.7421 68.0007 42.554 67.8144 42.3668C67.4419 41.9925 67.4428 41.619 67.6309 41.0593C68.1943 39.7537 67.0831 36.0167 65.9646 35.267C66.1427 38.8151 63.336 41.2355 62.3946 44.4074C62.2065 44.9671 61.8331 44.9662 61.4597 44.9653C60.9 44.7772 61.0881 44.2175 61.089 43.8441C61.4661 42.3513 61.8432 40.8584 61.8478 38.9913C61.856 35.6304 61.3036 32.4549 58.1345 30.3932C57.762 30.0189 57.5757 29.8317 57.0151 30.0171C55.1479 30.0125 53.6561 29.262 53.2872 27.3939C53.1037 26.0864 52.3596 24.9643 51.8026 23.6559C50.8732 21.9732 49.5694 20.663 48.4527 19.1665C47.3361 17.67 45.4717 16.5452 43.043 17.0994C42.4824 17.2847 41.9227 17.0966 41.3621 17.282C40.9887 17.2811 40.6152 17.2801 40.6162 16.9067C40.6171 16.5333 40.8042 16.347 40.9914 16.1608C41.552 15.9754 42.4861 15.791 43.7935 15.6075C41.9309 13.7357 40.0656 12.9843 37.8269 12.232C35.7744 11.6668 33.3475 11.4741 30.9198 11.6549C31.8556 10.7236 32.6034 10.352 33.5374 10.1676C38.581 9.24634 43.2448 10.9382 47.3452 13.9357C48.4637 14.6853 49.3968 14.8743 50.5171 14.8771C49.7739 13.3815 49.0307 11.886 48.1003 10.5767C42.1437 3.09342 32.8125 1.2034 24.7778 3.61103C18.4249 5.46263 13.0024 8.62353 8.32215 13.6534C4.76494 17.5657 2.70055 21.8552 2.31432 27.0823C2.12348 28.7623 1.74456 31.0019 3.60714 32.8737ZM67.9257 73.1753C69.046 73.1781 69.234 72.6184 69.6084 72.2459C72.416 69.452 74.8501 66.6572 77.099 63.3018C81.9709 56.2185 84.0427 48.9417 80.1413 40.9033C78.8412 38.0993 77.9154 34.9229 75.6803 32.6768C74.9352 31.9281 74.5636 31.1803 73.4442 30.8042C74.0012 32.1126 74.7453 33.2347 75.3022 34.5431C75.6748 34.9174 75.6739 35.2908 75.2995 35.6633C75.1123 35.8496 74.7389 35.8487 74.5526 35.6615C73.8067 35.2863 73.0607 34.911 72.5011 34.7229C79.9358 48.5582 78.9707 61.4392 67.9257 73.1753ZM70.676 17.5405C67.1288 17.3451 63.9515 18.6443 60.775 19.5701C58.5326 20.3115 57.4077 22.1759 55.9094 24.0394C55.7214 24.5991 56.093 25.3469 56.4655 25.7212C57.0243 26.2827 57.2133 25.3496 57.5876 24.9771C58.5244 23.6724 59.8337 22.742 61.3283 22.3722C64.5048 21.4464 67.4959 19.96 71.2265 21.4629C70.2961 20.1536 70.1126 18.8461 70.676 17.5405ZM73.2507 33.6044C71.9496 31.1739 70.8357 28.5572 68.2254 27.0571C65.9884 25.5578 63.9359 24.9927 61.3192 26.1065C65.7958 27.9847 69.3356 31.1675 73.2507 33.6044ZM54.6404 8.53882C54.2569 12.6456 55.1809 16.569 56.2911 20.6794C58.3564 16.0166 56.125 12.2768 54.6404 8.53882ZM48.6472 15.9928C51.0704 17.6792 53.1183 20.1115 54.4185 22.9155C55.3589 20.117 52.5669 16.5626 48.6472 15.9928ZM71.7945 18.2901C71.2311 19.5957 71.4164 20.1564 72.3477 21.0922C72.3505 19.9719 72.1651 19.4113 71.7945 18.2901ZM61.1375 24.0522C61.3247 23.866 61.5109 24.0531 61.5109 24.0531C61.5109 24.0531 61.6981 23.8669 61.5118 23.6797L61.1384 23.6788C61.3247 23.866 61.1375 24.0522 61.1375 24.0522Z" fill="#020202"/>
</svg>
